<svg xmlns="http://www.w3.org/2000/svg"
     version="1.2"
     baseProfile="tiny-ps"
     width="240"
     height="240"
     viewBox="0 0 240 240">
<g>
<path d="M 54.20 163.00 L 51.80 173.00 L 46.96 173.00 C44.30,173.00 41.85,172.57 41.52,172.04 C41.01,171.21 50.19,132.65 53.14,123.25 L 54.16 120.00 L 61.06 120.00 C67.77,120.00 67.98,120.08 68.61,122.75 C68.97,124.26 71.90,135.79 75.11,148.37 C78.33,160.95 80.72,171.64 80.43,172.12 C79.59,173.46 71.38,173.17 70.21,171.75 C69.64,171.06 68.86,168.81 68.48,166.75 L 67.78 163.00 ZM 202.00 163.08 L 202.00 173.00 L 188.67 173.00 C181.33,173.00 175.03,172.70 174.67,172.33 C174.30,171.97 174.00,160.04 174.00,145.83 L 174.00 120.00 L 202.00 120.00 L 202.00 130.00 L 185.00 130.00 L 185.00 134.89 C185.00,140.64 185.55,141.00 194.14,141.00 L 200.11 141.00 L 199.50 150.50 L 185.50 151.50 L 185.50 162.50 L 193.75 162.79 ZM 57.00 202.49 C56.61,209.55 56.17,211.54 54.95,211.77 C54.10,211.94 53.09,211.75 52.70,211.37 C52.32,210.98 52.00,204.44 52.00,196.83 L 52.00 183.00 L 59.86 183.00 L 61.53 190.50 C62.45,194.62 63.52,198.00 63.91,198.00 C64.29,198.00 65.18,194.62 65.87,190.50 L 67.13 183.00 L 75.00 183.00 L 75.00 197.57 C75.00,212.11 75.00,212.14 72.75,211.82 C70.65,211.52 70.47,210.90 70.00,202.50 L 69.50 193.50 L 67.59 202.00 C66.54,206.68 65.30,210.93 64.83,211.46 C63.28,213.22 61.33,209.66 59.40,201.50 L 57.50 193.50 ZM 172.00 204.00 C171.56,210.59 171.25,211.54 169.46,211.79 C168.34,211.95 167.10,211.77 166.71,211.38 C166.32,210.99 166.00,204.44 166.00,196.83 L 166.00 183.00 L 168.91 183.00 C171.60,183.00 172.04,183.56 174.66,190.25 L 177.50 197.50 L 177.79 190.25 C178.07,183.43 178.22,183.00 180.40,183.00 C182.55,183.00 182.75,183.51 183.35,190.65 C184.17,200.26 184.18,208.36 183.39,210.42 C182.51,212.73 179.27,212.35 177.64,209.75 C176.86,208.51 175.39,205.02 174.36,202.00 L 172.50 196.50 ZM 203.00 209.00 C203.00,211.99 202.98,212.00 197.17,212.00 C193.96,212.00 191.03,211.70 190.67,211.33 C190.30,210.97 190.00,204.44 190.00,196.83 L 190.00 183.00 L 196.50 183.00 C202.72,183.00 203.00,183.10 203.00,185.44 C203.00,187.54 202.47,187.92 199.25,188.19 C195.82,188.47 195.50,188.76 195.50,191.50 C195.50,194.15 195.88,194.54 198.75,194.81 C201.19,195.05 202.00,195.61 202.00,197.06 C202.00,198.31 201.31,199.00 200.08,199.00 C196.44,199.00 195.00,200.17 195.00,203.11 C195.00,205.82 195.26,206.00 199.00,206.00 C202.78,206.00 203.00,206.17 203.00,209.00 ZM 45.78 197.17 C45.55,208.95 45.24,211.52 44.00,211.74 C40.35,212.37 39.93,210.72 40.22,196.92 L 40.50 183.50 L 43.28 183.18 L 46.06 182.86 Z" fill="rgb(1,1,1)"/>
<path d="M 74.00 71.95 C62.80,77.59 49.87,72.90 43.67,60.95 C41.20,56.20 40.89,54.67 41.27,49.00 C41.53,45.12 42.55,40.84 43.81,38.37 C46.61,32.88 53.97,26.54 59.24,25.09 C62.34,24.23 79.50,23.99 122.50,24.21 C175.17,24.47 182.94,24.25 187.72,27.92 C188.89,28.82 189.88,29.94 191.30,31.36 C203.46,43.53 200.62,64.54 185.79,72.11 C176.99,76.60 163.82,73.22 158.44,65.09 C154.73,59.48 154.10,51.68 156.92,46.16 C159.85,40.41 164.05,38.01 171.17,38.00 C175.79,38.00 177.41,38.47 179.86,40.53 C185.68,45.44 186.27,52.96 181.24,58.25 C176.76,62.96 169.00,61.51 169.00,55.96 C169.00,52.55 169.59,52.32 172.27,54.74 C174.11,56.41 174.27,56.38 176.10,54.13 C178.41,51.28 178.46,50.11 176.44,47.22 C174.26,44.11 168.15,44.15 165.19,47.30 C156.74,56.29 168.23,69.94 181.02,66.11 C185.59,64.74 189.50,60.41 191.16,54.87 C192.65,49.88 191.13,43.17 187.39,38.27 C186.53,37.14 185.90,36.22 185.11,35.46 C181.49,31.99 174.54,31.99 127.19,32.00 C125.01,32.00 122.74,32.00 120.39,32.00 L 61.68 32.00 L 57.34 34.54 C52.70,37.26 49.66,41.99 48.47,48.31 C47.92,51.25 48.33,53.16 50.47,57.53 C54.74,66.26 62.73,69.23 70.79,65.10 C77.24,61.79 79.64,55.08 76.54,49.07 C74.92,45.95 73.18,44.99 69.17,45.02 C65.94,45.03 64.66,45.81 63.15,48.68 C60.91,52.93 65.52,57.65 68.91,54.58 C69.88,53.71 70.96,53.30 71.33,53.66 C72.58,54.91 72.01,57.68 70.17,59.35 C67.32,61.92 62.50,61.42 58.85,58.16 C56.14,55.73 55.69,54.67 55.75,50.77 C55.79,48.26 56.34,45.24 56.97,44.05 C60.40,37.65 73.13,35.72 79.06,40.70 C88.89,48.98 86.16,65.84 74.00,71.95 ZM 101.00 163.00 L 101.00 173.00 L 96.17 173.00 C93.51,173.00 91.03,172.70 90.67,172.33 C90.30,171.97 90.00,160.05 90.00,145.85 L 90.00 120.04 L 92.63 119.38 C94.08,119.01 99.79,119.01 105.32,119.38 C117.05,120.14 120.89,121.84 122.69,127.05 C125.43,134.96 123.56,146.38 119.07,149.19 C116.33,150.90 116.41,151.56 120.50,161.71 C122.43,166.48 124.00,171.00 124.00,171.74 C124.00,172.76 122.57,173.03 118.25,172.80 L 112.50 172.50 L 109.14 162.75 C106.15,154.07 105.52,153.00 103.39,153.00 C101.03,153.00 101.00,153.12 101.00,163.00 ZM 154.77 151.30 L 154.50 172.50 L 150.00 172.69 C147.52,172.80 144.94,172.65 144.25,172.36 C143.31,171.96 143.00,166.71 143.00,150.97 L 143.00 130.10 L 132.50 129.50 L 132.20 124.88 C131.99,121.55 132.31,120.10 133.35,119.70 C134.14,119.39 141.70,119.22 150.15,119.32 L 165.50 119.50 L 165.50 129.50 L 160.27 129.80 L 155.04 130.10 ZM 149.55 45.50 L 147.10 51.50 L 120.03 51.77 L 92.96 52.03 L 91.98 49.45 C91.44,48.03 91.00,46.43 91.00,45.89 C91.00,45.34 90.31,43.57 89.47,41.95 L 87.95 39.00 L 119.97 39.00 C137.59,39.00 152.00,39.11 152.00,39.25 C151.99,39.39 150.89,42.20 149.55,45.50 ZM 86.00 202.49 C85.61,209.55 85.17,211.54 83.95,211.77 C83.10,211.94 82.09,211.75 81.70,211.37 C81.32,210.98 81.00,204.44 81.00,196.83 L 81.00 183.00 L 84.93 183.00 C85.07,183.00 85.20,183.00 85.33,183.00 C86.68,183.00 87.55,182.99 88.19,183.38 C89.40,184.10 89.79,186.19 91.08,192.22 C92.22,197.56 94.00,199.24 94.00,194.99 C94.00,193.95 94.49,190.83 95.08,188.05 C96.16,183.03 96.19,183.00 100.08,183.00 L 104.00 183.00 L 104.00 197.57 C104.00,212.11 104.00,212.14 101.75,211.82 C99.65,211.52 99.47,210.90 99.00,202.50 L 98.50 193.50 L 96.69 201.50 C94.42,211.53 94.26,212.00 93.15,212.00 C91.38,212.00 90.20,209.40 88.36,201.50 L 86.50 193.50 ZM 139.16 93.50 L 139.50 109.50 L 132.96 109.79 C129.36,109.95 126.10,109.76 125.71,109.37 C125.32,108.99 125.00,101.87 125.00,93.56 C125.00,75.89 125.67,74.00 131.90,74.00 C138.29,74.00 138.78,75.30 139.16,93.50 ZM 115.00 93.57 L 115.00 110.00 L 108.47 110.00 C104.05,110.00 101.78,109.58 101.44,108.71 C101.17,108.00 101.07,100.51 101.22,92.06 C101.50,76.74 101.50,76.71 104.16,74.73 C105.98,73.37 107.63,72.94 109.34,73.37 C114.70,74.71 115.00,75.80 115.00,93.57 ZM 151.00 65.65 C151.00,65.84 137.05,66.00 120.00,66.00 C102.95,66.00 89.00,65.84 89.00,65.65 C89.00,65.46 89.49,63.88 90.10,62.15 L 91.20 59.00 L 148.80 59.00 L 149.90 62.15 C150.51,63.88 151.00,65.46 151.00,65.65 ZM 163.50 96.66 L 163.50 109.50 L 156.96 109.79 C153.36,109.95 150.10,109.76 149.71,109.37 C149.32,108.99 149.00,103.32 149.00,96.79 C149.00,85.51 149.12,84.79 151.45,82.45 C154.40,79.51 157.93,79.31 161.14,81.91 C163.40,83.74 163.50,84.37 163.50,96.66 ZM 91.00 97.07 L 91.00 110.00 L 84.67 110.00 C81.18,110.00 78.03,109.70 77.67,109.33 C77.30,108.97 77.00,103.15 77.00,96.41 C77.00,84.35 77.04,84.11 79.63,82.07 C82.96,79.46 85.04,79.46 88.37,82.07 C90.97,84.12 91.00,84.30 91.00,97.07 ZM 148.79 203.68 L 148.50 211.36 L 143.00 211.65 C137.73,211.92 134.34,210.91 132.77,208.59 C131.65,206.94 131.86,188.14 133.01,185.98 C134.39,183.41 140.30,181.86 143.91,183.12 C147.79,184.47 150.59,190.90 147.99,192.51 C146.22,193.60 143.00,191.94 143.00,189.93 C143.00,188.53 142.30,188.00 140.46,188.00 L 137.92 188.00 L 138.21 197.25 C138.48,205.74 138.66,206.50 140.50,206.50 C143.06,206.50 143.90,202.08 141.59,200.79 C140.72,200.30 140.00,199.02 140.00,197.95 C140.00,196.30 140.71,196.00 144.54,196.00 L 149.08 196.00 ZM 114.31 209.00 C113.16,212.02 110.31,213.07 109.50,210.75 C109.27,210.06 110.29,203.65 111.79,196.50 L 114.50 183.50 L 118.14 183.20 L 121.78 182.89 L 123.47 190.70 C124.40,194.99 125.77,201.20 126.51,204.50 C127.97,210.95 127.41,212.58 124.10,211.53 C122.72,211.10 122.00,210.03 122.00,208.43 C122.00,206.35 121.53,206.00 118.72,206.00 C115.99,206.00 115.25,206.51 114.31,209.00 ZM 160.00 197.50 C160.00,210.89 159.86,212.00 158.17,212.00 C157.16,212.00 156.03,211.70 155.67,211.33 C155.30,210.97 155.00,204.44 155.00,196.83 L 155.00 183.00 L 160.00 183.00 Z" fill="rgb(77,119,86)"/>
<path d="M 0.00 120.00 L 0.00 0.00 L 120.00 0.00 L 240.00 0.00 L 240.00 120.00 L 240.00 240.00 L 120.00 240.00 L 0.00 240.00 L 0.00 120.00 ZM 45.78 197.17 L 46.06 182.86 L 43.28 183.18 L 40.50 183.50 L 40.22 196.92 C39.93,210.72 40.35,212.37 44.00,211.74 C45.24,211.52 45.55,208.95 45.78,197.17 ZM 57.00 202.49 L 57.50 193.50 L 59.40 201.50 C61.33,209.66 63.28,213.22 64.83,211.46 C65.30,210.93 66.54,206.68 67.59,202.00 L 69.50 193.50 L 70.00 202.50 C70.47,210.90 70.65,211.52 72.75,211.82 C75.00,212.14 75.00,212.11 75.00,197.57 L 75.00 183.00 L 71.07 183.00 L 67.13 183.00 L 65.87 190.50 C65.18,194.62 64.29,198.00 63.91,198.00 C63.52,198.00 62.45,194.62 61.53,190.50 L 59.86 183.00 L 55.93 183.00 L 52.00 183.00 L 52.00 196.83 C52.00,204.44 52.32,210.98 52.70,211.37 C53.09,211.75 54.10,211.94 54.95,211.77 C56.17,211.54 56.61,209.55 57.00,202.49 ZM 86.00 202.49 L 86.50 193.50 L 88.36 201.50 C90.20,209.40 91.38,212.00 93.15,212.00 C94.26,212.00 94.42,211.53 96.69,201.50 L 98.50 193.50 L 99.00 202.50 C99.47,210.90 99.65,211.52 101.75,211.82 C104.00,212.14 104.00,212.11 104.00,197.57 L 104.00 183.00 L 100.08 183.00 C96.19,183.00 96.16,183.03 95.08,188.05 C94.49,190.83 94.00,193.95 94.00,194.99 C94.00,199.24 92.22,197.56 91.08,192.22 C89.04,182.69 89.25,183.00 84.93,183.00 L 81.00 183.00 L 81.00 196.83 C81.00,204.44 81.32,210.98 81.70,211.37 C82.09,211.75 83.10,211.94 83.95,211.77 C85.17,211.54 85.61,209.55 86.00,202.49 ZM 114.31 209.00 C115.25,206.51 115.99,206.00 118.72,206.00 C121.53,206.00 122.00,206.35 122.00,208.43 C122.00,210.03 122.72,211.10 124.10,211.53 C127.41,212.58 127.97,210.95 126.51,204.50 C125.77,201.20 124.40,194.99 123.47,190.70 L 121.78 182.89 L 118.14 183.20 L 114.50 183.50 L 111.79 196.50 C110.29,203.65 109.27,210.06 109.50,210.75 C110.31,213.07 113.16,212.02 114.31,209.00 ZM 148.79 203.68 L 149.08 196.00 L 144.54 196.00 C140.71,196.00 140.00,196.30 140.00,197.95 C140.00,199.02 140.72,200.30 141.59,200.79 C143.90,202.08 143.06,206.50 140.50,206.50 C138.66,206.50 138.48,205.74 138.21,197.25 L 137.92 188.00 L 140.46 188.00 C142.30,188.00 143.00,188.53 143.00,189.93 C143.00,191.94 146.22,193.60 147.99,192.51 C150.59,190.90 147.79,184.47 143.91,183.12 C140.30,181.86 134.39,183.41 133.01,185.98 C131.86,188.14 131.65,206.94 132.77,208.59 C134.34,210.91 137.73,211.92 143.00,211.65 L 148.50 211.36 L 148.79 203.68 ZM 160.00 197.50 L 160.00 183.00 L 157.50 183.00 L 155.00 183.00 L 155.00 196.83 C155.00,204.44 155.30,210.97 155.67,211.33 C156.03,211.70 157.16,212.00 158.17,212.00 C159.86,212.00 160.00,210.89 160.00,197.50 ZM 172.00 204.00 L 172.50 196.50 L 174.36 202.00 C175.39,205.02 176.86,208.51 177.64,209.75 C179.27,212.35 182.51,212.73 183.39,210.42 C184.18,208.36 184.17,200.26 183.35,190.65 C182.75,183.51 182.55,183.00 180.40,183.00 C178.22,183.00 178.07,183.43 177.79,190.25 L 177.50 197.50 L 174.66 190.25 C172.04,183.56 171.60,183.00 168.91,183.00 L 166.00 183.00 L 166.00 196.83 C166.00,204.44 166.32,210.99 166.71,211.38 C167.10,211.77 168.34,211.95 169.46,211.79 C171.25,211.54 171.56,210.59 172.00,204.00 ZM 203.00 209.00 C203.00,206.17 202.78,206.00 199.00,206.00 C195.26,206.00 195.00,205.82 195.00,203.11 C195.00,200.17 196.44,199.00 200.08,199.00 C201.31,199.00 202.00,198.31 202.00,197.06 C202.00,195.61 201.19,195.05 198.75,194.81 C195.88,194.54 195.50,194.15 195.50,191.50 C195.50,188.76 195.82,188.47 199.25,188.19 C202.47,187.92 203.00,187.54 203.00,185.44 C203.00,183.10 202.72,183.00 196.50,183.00 L 190.00 183.00 L 190.00 196.83 C190.00,204.44 190.30,210.97 190.67,211.33 C191.03,211.70 193.96,212.00 197.17,212.00 C202.98,212.00 203.00,211.99 203.00,209.00 ZM 53.00 168.00 L 54.20 163.00 L 60.99 163.00 L 67.78 163.00 L 68.48 166.75 C68.86,168.81 69.64,171.06 70.21,171.75 C71.38,173.17 79.59,173.46 80.43,172.12 C80.72,171.64 78.33,160.95 75.11,148.37 C71.90,135.79 68.97,124.26 68.61,122.75 C67.98,120.08 67.77,120.00 61.06,120.00 L 54.16 120.00 L 53.14 123.25 C50.19,132.65 41.01,171.21 41.52,172.04 C41.85,172.57 44.30,173.00 46.96,173.00 L 51.80 173.00 L 53.00 168.00 ZM 101.00 163.00 C101.00,153.12 101.03,153.00 103.39,153.00 C105.52,153.00 106.15,154.07 109.14,162.75 L 112.50 172.50 L 118.25 172.80 C122.57,173.03 124.00,172.76 124.00,171.74 C124.00,171.00 122.43,166.48 120.50,161.71 C116.41,151.56 116.33,150.90 119.07,149.19 C123.56,146.38 125.43,134.96 122.69,127.05 C120.89,121.84 117.05,120.14 105.32,119.38 C99.79,119.01 94.08,119.01 92.63,119.38 L 90.00 120.04 L 90.00 145.85 C90.00,160.05 90.30,171.97 90.67,172.33 C91.03,172.70 93.51,173.00 96.17,173.00 L 101.00 173.00 L 101.00 163.00 ZM 154.77 151.30 L 155.04 130.10 L 160.27 129.80 L 165.50 129.50 L 165.50 124.50 L 165.50 119.50 L 150.15 119.32 C141.70,119.22 134.14,119.39 133.35,119.70 C132.31,120.10 131.99,121.55 132.20,124.88 L 132.50 129.50 L 137.75 129.80 L 143.00 130.10 L 143.00 150.97 C143.00,166.71 143.31,171.96 144.25,172.36 C144.94,172.65 147.52,172.80 150.00,172.69 L 154.50 172.50 L 154.77 151.30 ZM 202.00 168.04 L 202.00 163.08 L 193.75 162.79 L 185.50 162.50 L 185.50 157.00 L 185.50 151.50 L 192.50 151.00 L 199.50 150.50 L 199.80 145.75 L 200.11 141.00 L 194.14 141.00 C185.55,141.00 185.00,140.64 185.00,134.89 L 185.00 130.00 L 193.50 130.00 L 202.00 130.00 L 202.00 125.00 L 202.00 120.00 L 188.00 120.00 L 174.00 120.00 L 174.00 145.83 C174.00,160.04 174.30,171.97 174.67,172.33 C175.03,172.70 181.33,173.00 188.67,173.00 L 202.00 173.00 L 202.00 168.04 ZM 91.00 97.07 C91.00,84.30 90.97,84.12 88.37,82.07 C85.04,79.46 82.96,79.46 79.63,82.07 C77.04,84.11 77.00,84.35 77.00,96.41 C77.00,103.15 77.30,108.97 77.67,109.33 C78.03,109.70 81.18,110.00 84.67,110.00 L 91.00 110.00 L 91.00 97.07 ZM 115.00 93.57 C115.00,75.80 114.70,74.71 109.34,73.37 C107.63,72.94 105.98,73.37 104.16,74.73 C101.50,76.71 101.50,76.74 101.22,92.06 C101.07,100.51 101.17,108.00 101.44,108.71 C101.78,109.58 104.05,110.00 108.47,110.00 L 115.00 110.00 L 115.00 93.57 ZM 139.16 93.50 C138.78,75.30 138.29,74.00 131.90,74.00 C125.67,74.00 125.00,75.89 125.00,93.56 C125.00,101.87 125.32,108.99 125.71,109.37 C126.10,109.76 129.36,109.95 132.96,109.79 L 139.50 109.50 L 139.16 93.50 ZM 163.50 96.66 C163.50,84.37 163.40,83.74 161.14,81.91 C157.93,79.31 154.40,79.51 151.45,82.45 C149.12,84.79 149.00,85.51 149.00,96.79 C149.00,103.32 149.32,108.99 149.71,109.37 C150.10,109.76 153.36,109.95 156.96,109.79 L 163.50 109.50 L 163.50 96.66 ZM 74.00 71.95 C86.16,65.84 88.89,48.98 79.06,40.70 C73.13,35.72 60.40,37.65 56.97,44.05 C56.34,45.24 55.79,48.26 55.75,50.77 C55.69,54.67 56.14,55.73 58.85,58.16 C62.50,61.42 67.32,61.92 70.17,59.35 C72.01,57.68 72.58,54.91 71.33,53.66 C70.96,53.30 69.88,53.71 68.91,54.58 C65.52,57.65 60.91,52.93 63.15,48.68 C64.66,45.81 65.94,45.03 69.17,45.02 C73.18,44.99 74.92,45.95 76.54,49.07 C79.64,55.08 77.24,61.79 70.79,65.10 C62.73,69.23 54.74,66.26 50.47,57.53 C48.33,53.16 47.92,51.25 48.47,48.31 C49.66,41.99 52.70,37.26 57.34,34.54 L 61.68 32.00 L 120.39 32.00 C185.05,32.00 182.42,31.75 187.39,38.27 C191.13,43.17 192.65,49.88 191.16,54.87 C189.50,60.41 185.59,64.74 181.02,66.11 C168.23,69.94 156.74,56.29 165.19,47.30 C168.15,44.15 174.26,44.11 176.44,47.22 C178.46,50.11 178.41,51.28 176.10,54.13 C174.27,56.38 174.11,56.41 172.27,54.74 C169.59,52.32 169.00,52.55 169.00,55.96 C169.00,61.51 176.76,62.96 181.24,58.25 C186.27,52.96 185.68,45.44 179.86,40.53 C177.41,38.47 175.79,38.00 171.17,38.00 C164.05,38.01 159.85,40.41 156.92,46.16 C154.10,51.68 154.73,59.48 158.44,65.09 C163.82,73.22 176.99,76.60 185.79,72.11 C200.62,64.54 203.46,43.53 191.30,31.36 C184.05,24.12 188.02,24.53 122.50,24.21 C79.50,23.99 62.34,24.23 59.24,25.09 C53.97,26.54 46.61,32.88 43.81,38.37 C42.55,40.84 41.53,45.12 41.27,49.00 C40.89,54.67 41.20,56.20 43.67,60.95 C49.87,72.90 62.80,77.59 74.00,71.95 ZM 151.00 65.65 C151.00,65.46 150.51,63.88 149.90,62.15 L 148.80 59.00 L 120.00 59.00 L 91.20 59.00 L 90.10 62.15 C89.49,63.88 89.00,65.46 89.00,65.65 C89.00,65.84 102.95,66.00 120.00,66.00 C137.05,66.00 151.00,65.84 151.00,65.65 ZM 149.55 45.50 C150.89,42.20 151.99,39.39 152.00,39.25 C152.00,39.11 137.59,39.00 119.97,39.00 L 87.95 39.00 L 89.47 41.95 C90.31,43.57 91.00,45.34 91.00,45.89 C91.00,46.43 91.44,48.03 91.98,49.45 L 92.96 52.03 L 120.03 51.77 L 147.10 51.50 L 149.55 45.50 Z" fill="rgb(252,254,253)"/>
</g>
</svg>
