<svg version="1.2"
     baseProfile="tiny-ps"
     xmlns="http://www.w3.org/2000/svg"
     width="283.5"
     height="283.5"
     viewBox="0 0 283.5 283.5">
  <title>Logo Arte Immagine</title>
  <path fill="#4c7c54" d="M111.7 128.5v-23a8 8 0 0 0-5.5-7.1c-3.2-.9-6.4.2-8.4 2.8a9 9 0 0 0-1.5 5.8v19.8q0 1 .2 1.8m25-.1h15.3v-2.1l-.1-28.1c0-4.8-4.4-8.4-9.2-7.5q-5.9 1.3-6 7.5m40.8 30v-1.8l-.1-28.4c0-4.8-4.2-8.2-8.9-7.5-3 .4-6.4 3.2-6.4 7.9v29.9m15.4-.1h25.4v-2.4l-.1-20.4c0-3.6-1.9-6.4-5.3-7.4a8 8 0 0 0-8.6 2.6c-1.3 1.6-1.5 3.4-1.5 5.4v22.2h-.3m-30.1-81.7H198q11.9.1 17 10.9a18 18 0 0 1-1.8 20.3 15.3 15.3 0 0 1-25.2-1.2 11 11 0 0 1-.8-11.2c2.3-4.7 8.3-6.4 12.3-3.7 3 2.1 3.7 6.6 1.3 8.9-1.8 1.8-4.3 1.6-5.6-.6-.3-.4-.5-1-1.2-.9s-1.1.5-1.2 1.2a5 5 0 0 0 1.3 5.3 8 8 0 0 0 8.8 1.3c6.7-2.7 8.9-11 4.8-17.5-4.7-7.3-15-9-22.3-3.7-6.4 4.7-8 11.3-6.5 18.8 2.8 13.5 18.6 21 31.4 15a26 26 0 0 0 14.5-26.2 28 28 0 0 0-27.6-24.9H86.1q-2.6-.1-4.8.4a28.5 28.5 0 0 0-22.7 29.5c.9 12.3 12.1 25.6 28.2 23A21 21 0 0 0 105 68c-1-9.4-8.4-15.9-17.9-15.2-7.3.5-14 6.4-13.3 14.9.4 4.5 3.2 8.4 7.5 9.7 3 .9 5.8.7 8.2-1.6a5 5 0 0 0 1.3-5.2q-.1-1-1.1-1.3-.9 0-1.3.8-1.2 2.2-3.8 1.8c-2.6-.4-2.7-1.4-3.2-3-1.1-3.4 1.2-7.2 4.8-8.1a9 9 0 0 1 10.6 6c1.5 4.6.2 8.7-2.9 12.1a15.4 15.4 0 0 1-24.4-2.3 18 18 0 0 1-.7-19.8c3.5-6.5 9-10.2 16.5-10.2zm.2 7.7h-32.6c-.4 0-1.1-.3-1.3.3-.3.5.3.8.5 1.3q2.8 4.5 3.7 9.8.3 2.1 2.4 2.1h54.9c1.3 0 1.9-.3 2.1-1.8q.7-5.2 3.4-9.9c.3-.5 1-.9.6-1.5-.3-.5-1.1-.3-1.7-.3zm0 28.4h31.3c1.7 0 1.8 0 .9-1.6q-1.3-2.2-1.8-4.7-.4-1.8-2.3-1.7h-55.8q-2.3 0-3 2.2l-1.6 4q-.8 1.8 1.1 1.8zm-32.7 84.2v25.7c0 2.1.3 2.3 2.3 2.3h6.8c2.3 0 2.6-.3 2.6-2.7v-16.3c0-.7-.2-1.4.5-1.9 1.3-1 4.2-.1 4.8 1.5l6.2 17.6q.6 2 2.6 1.9l7.9-.2c2.6-.1 2.8-.3 1.8-2.7l-7.4-18.8q-.7-1.7.9-2.3 5-2.3 6-7.7 1-5.6.6-11.1c-.8-7.9-4.4-11.9-12.1-13.2l-3.3-.2h-17.3c-2.7 0-2.9.3-2.9 2.9z"/>
  <path d="M78.6 138.9h-4.1c-3.2 0-3.3.1-4 3.1l-8.2 32.4-4.5 18.1c-.6 2.2-.2 2.6 2.1 2.6h7.6q1.9 0 2.3-1.8l1.6-7.3q.3-2 2.2-1.8h10.2q1.8 0 2.1 1.7l1.7 7.3q.4 2 2.4 1.9h6.8c3.5 0 3.6-.1 2.7-3.6l-6.9-26.8-6-23.6q-.6-2.4-2.8-2.3-2.7.2-5.2.1m119 27.8v25.8c0 1.3.2 2.3 1.8 2.3h26.2q2 0 1.8-1.9v-6.3c0-2-.3-2.3-2.3-2.3h-13.6q-2.4 0-2.2-2.2v-8.2q0-2.2 2.1-2.1h11.4q2.1 0 2.1-2V163q0-2.4-2.3-2.2h-11.4q-2 0-1.8-1.8v-7.1c0-2.3.3-2.4 2.4-2.4h13.5q2.3 0 2.1-2.1v-6.1c0-2.3-.2-2.5-2.5-2.5h-24.7c-2.3 0-2.7.3-2.7 2.7z"/>
  <path fill="#4c7c54" d="M177.4 172.1v-20.4q0-2.4 2.2-2.2h7.1c1.9 0 2.3-.3 2.3-2.3v-5.9c0-2.2-.3-2.4-2.5-2.4h-30.9q-2.3 0-2.3 2.2v6.6q0 2 1.9 1.9h6.6q3.4 0 3.4 3.4v39.4c0 2.2.2 2.3 2.3 2.3h7.3c2.2 0 2.4-.3 2.4-2.5q.3-9.9.2-20.1m-58.8 43.4.4.8c-.4 5.3 0 10.6-.2 16 0 3.8.2 3.9 3.9 3.7q1.7 0 1.7-1.7v-27q0-1.8-1.8-1.8H118q-2.4-.2-2.7 2.3l-2.7 14q.2.6-.7.8l-.3-.9-2.9-14.3q-.3-2-2.2-1.8h-4.8q-2.3-.2-2.2 2.2v26c0 2.1.2 2.3 2.6 2.3s2.7-.1 2.8-2.3V218c0-.5-.2-1.1.3-1.6q.5.5.5 1.1l3.8 16.7q.3 2 2.3 1.9 1.9 0 2.3-1.8l2.3-9.9z"/>
  <path d="M88.4 216.2v16.4c0 3.3 0 3.4 3.4 3.3h.3q1.6 0 1.5-1.6v-27q0-1.8-1.8-1.8H87q-2.2 0-2.4 2.2l-1.8 9.9q-.3 2.7-1.2 5.2c-.7-.3-.6-.7-.7-1l-3-14.1q-.3-2.1-2.4-2h-4.6q-2.4-.2-2.2 2.2v26c0 2 .4 2.2 2.9 2.2s2.5-.2 2.5-2.2v-15.8c0-.6-.3-1.2.3-1.7q.5.7.5 1.3l3.9 16.7c.3 1.3.9 1.6 2.2 1.7q2.3 0 2.5-2.1l3.8-16.4c.4-.5.3-1 1-1.4m113.7 5.6c-.9-.3-.9-.8-1-1.2l-4.2-11.3q-1.4-4-5.7-3.8-2 0-1.9 1.9v26.5q0 2 1.9 1.9h1.5c2.2 0 2.4-.3 2.4-2.5v-13c0-.4-.3-1 .5-1.3l4.9 13.7c1.1 3.2 1.3 3.3 4.4 3.2 2.8 0 2.8-.1 2.8-2.9v-23.8q0-3.8-3.8-3.7h-.2q-1.8 0-1.6 1.7z"/>
  <path fill="#4c7c54" d="M159.4 220.7v-7.3q.3-2.8 3-2.9 2.7 0 2.9 3.2c.1.8-.2 1.9.9 2.1h3.7q.8 0 .9-1.1c.7-3-.6-6.4-3.2-8q-3.9-2.3-8.2-1.3-6.1 1.3-6.1 7.6v15.8q0 4.5 3.8 6.7c2.8 1.3 5.7 1.5 8.4-.3.8-.6 1.3-.8 2.1.2q1.1 1 2.5.4 1-.6.9-1.8v-12.5q.1-2.1-1.9-2H164c-1.3 0-2.2.2-2.3 1.8-.1 2.8 0 3 1.9 3.2q1.7 0 1.5 1.6v2q-.3 2.8-3.1 2.8-2.7-.2-2.8-2.9.3-3.7.2-7.3m-13.1 15.2c2.9 0 3-.1 2.3-3l-.9-4.2-4.7-21.4q-.3-2-2.3-1.8h-3.4q-2.4-.2-2.6 2.1l-2.3 10.9-3.3 15.3c-.2.8-.3 1.6.7 1.9q4.5 1.4 5.4-3.1c.6-3 .3-2.9 3.5-2.9s3.2-.4 3.9 3.3c.9 2.8 1 2.9 3.7 2.9"/>
  <path d="M213.9 220.7v13q0 2.4 2.3 2.2h8.9c3.5 0 3.6-.1 3.5-3.6v-.2q0-2.1-2.1-2h-4.3c-2.3 0-2.4-.1-2.4-2.3 0-5.3-.5-4.6 4.6-4.7 2.8 0 2.8-.1 2.8-2.8v-.3q.3-2.2-2-2.1h-3.9q-1.2 0-1.5-1.1c-1-4.3-.1-5.5 4.3-5.5h.7q3.8 0 3.6-3.7 0-2.3-2.2-2h-9.9c-2 0-2.3.3-2.3 2.3z"/>
  <path fill="#4c7c54" d="M183.2 220.6v-11.5q0-3.5-3.5-3.5c-2.3 0-2.4.2-2.4 2.4v24.4q0 3.5 3.6 3.5c2.1 0 2.3-.3 2.3-2.4z"/>
  <path d="M57.1 220.8V234q-.2 1 .3 1.6c1.5.8 3.1.5 4.6.2 1.1-.3.8-1.5.8-2.3v-23.9c0-4.1 0-4.2-4.2-3.9q-1.7 0-1.7 1.8.3 6.4.2 13.3"/>
  <path fill="#4c7c54" d="M121.3 156.8V151q0-1.7 1.6-1.7 3.1-.2 6.3.3a4 4 0 0 1 3.3 2.9q1.2 3.8.1 7.7a5 5 0 0 1-5 3.8h-4.9q-1.5.1-1.3-1.3z"/>
  <path d="m78.8 155.9 1.5 6 2.5 10.6q.6 1.8-1.3 1.8h-5.8q-1.4 0-1.2-1.3l3.8-16.4q-.1-.2.5-.7"/>
  <path fill="#4c7c54" d="M138.8 214.7c.9 1 .8 1.8 1 2.7l1.2 5.9q.5 1.3-1.2 1.5c-2.6.3-2.9-.1-2.4-2.6z"/>
</svg>
