<?xml version='1.0' encoding='UTF-8'?>
<svg xmlns="http://www.w3.org/2000/svg" xmlns="http://www.w3.org/2000/svg" version="1.2" baseProfile="tiny-ps" viewBox="0 0 251.35 251.35"><defs><style>.a{fill:#4c7c54;}.b{fill:#fff;}.c{fill:#1d1d1b;}.d{fill:none;stroke:#fff;stroke-miterlimit:10;}</style></defs><path class="a" d="M467,314.88c0-1-.08-2-.08-2.93,0-43,0-9.55,0-52.57a9,9,0,0,0-6.29-8.95,9.14,9.14,0,0,0-10.35,3.13,10.1,10.1,0,0,0-1.83,6.51c0,42.85,0,9.2,0,52,0,.92-.06,1.84-.1,2.76H436.63c0-.69-.07-1.38-.07-2.07,0-20.26,0,10.47,0-9.8,0-23.14,0-29.29,0-52.43a9.13,9.13,0,0,0-10.62-9,9.27,9.27,0,0,0-7.69,9.37c.11,24.29,0,31.59,0,55.88,0,19.69,0-11.62,0,8.07H406.22c0-.8-.1-1.61-.1-2.41,0-32.82,0,2.34,0-30.48,0-10.48,0-21,0-31.44a9.17,9.17,0,0,0-11-9c-4.52.91-7.2,4.22-7.2,9,0,21.54,0,26.08,0,47.61,0,22.57,0-5.85,0,16.73H376.16c0-1-.1-2-.1-2.93,0-41.93,0-7.36,0-49.29,0-1.21,0-2.42,0-3.63a9.53,9.53,0,0,0-6.59-8.46,9,9,0,0,0-10,3.34c-1.55,2.05-1.84,4.41-1.84,6.87,0,42.79,0,9.09,0,51.88a6,6,0,0,0,.23,2.22m54.3-126c22.4,0,44.8-.06,67.2,0,9.45,0,16.29,4.7,20.38,13s3.6,16.69-2.1,24.27c-7.69,10.23-23.54,9.45-30.07-1.41-2.55-4.24-3.16-8.76-.92-13.35,2.72-5.57,9.94-7.71,14.65-4.43,3.6,2.5,4.37,7.88,1.54,10.74a4.11,4.11,0,0,1-6.73-.69c-.35-.54-.61-1.18-1.39-1.09a1.66,1.66,0,0,0-1.38,1.38,5.78,5.78,0,0,0,1.64,6.31c3.09,2.81,6.67,3.17,10.46,1.64,8-3.24,10.71-13.2,5.71-21-5.58-8.68-17.94-10.82-26.68-4.35-7.61,5.63-9.63,13.55-7.79,22.45,3.36,16.24,22.19,25.11,37.59,17.89a30.81,30.81,0,0,0,17.34-31.43,33.45,33.45,0,0,0-33-29.79q-66.51,0-133,0a32.1,32.1,0,0,0-5.84.55C322,182.88,311.37,199.8,312.54,215c1.13,14.74,14.53,30.63,33.83,27.54,13.89-2.23,23.22-14,21.81-27.9-1.16-11.35-10-19-21.38-18.2-8.71.59-16.77,7.62-15.9,17.76a13,13,0,0,0,9,11.56c3.58,1.12,7,.76,9.82-1.92a6,6,0,0,0,1.61-6.19c-.17-.68-.49-1.34-1.29-1.46a1.5,1.5,0,0,0-1.52.93,4,4,0,0,1-4.51,2.12,4.8,4.8,0,0,1-3.81-3.6,7.82,7.82,0,0,1,5.72-9.72,10.92,10.92,0,0,1,12.73,7.25c1.78,5.52.25,10.41-3.54,14.53-8.22,9-22.33,7.66-29.17-2.73-5-7.67-5.09-15.78-.78-23.75,4.21-7.78,10.85-12.2,19.83-12.24C367.34,188.83,389.74,188.9,412.14,188.9Zm.13,9.18q-19.52,0-39,0c-.55,0-1.29-.28-1.6.29s.36,1,.65,1.49a30.64,30.64,0,0,1,4.39,11.72c.39,2.5.41,2.51,2.91,2.51h25.23c13.48,0,27,0,40.43,0,1.64,0,2.29-.44,2.47-2.19a28.41,28.41,0,0,1,4.15-11.8c.33-.56,1.19-1.09.74-1.77s-1.29-.27-2-.27Q431.45,198.07,412.27,198.08Zm0,34h37.49c2,0,2.05-.1,1.13-1.92a24.51,24.51,0,0,1-2.21-5.61c-.35-1.55-1.18-2-2.68-2-6.91.06-13.82,0-20.73,0H379.13c-2.78,0-2.73,0-3.58,2.56a51.3,51.3,0,0,1-1.9,4.81c-.92,2.05-.94,2.09,1.29,2.09Z" transform="translate(-286.62 -174.5)"/><path class="a" d="M374.29,332.89h0q0,15.34,0,30.68c0,2.5.29,2.8,2.81,2.82q4.06,0,8.13,0c2.85,0,3.08-.28,3.09-3.19,0-6.5,0-13,0-19.5,0-.79-.17-1.68.61-2.25,1.63-1.2,5-.1,5.68,1.82,2.48,7,5,14,7.42,21.07a2.87,2.87,0,0,0,3.12,2.27c3.18-.1,6.36-.11,9.54-.2s3.26-.37,2.16-3.2c-2.92-7.51-5.84-15-8.83-22.5-.56-1.41-.4-2.15,1.09-2.79,4.06-1.73,6.24-5,7.18-9.24a42.59,42.59,0,0,0,.72-13.33c-.9-9.55-5.32-14.29-14.49-15.8a25.55,25.55,0,0,0-4-.22q-10.36,0-20.72,0c-3.16,0-3.45.31-3.46,3.52Q374.29,317.86,374.29,332.89Z" transform="translate(-286.62 -174.5)"/><path class="c" d="M337.62,299.32h-4.88c-3.8,0-3.91.11-4.82,3.71q-4.88,19.4-9.77,38.79-2.73,10.83-5.43,21.67c-.65,2.62-.24,3.13,2.48,3.15,3,0,6.1,0,9.14,0a2.3,2.3,0,0,0,2.66-2.13c.56-2.92,1.32-5.81,1.88-8.73.29-1.52.95-2.21,2.56-2.18q6.09.12,12.19,0a2.19,2.19,0,0,1,2.52,2c.63,2.91,1.42,5.79,2,8.7a2.5,2.5,0,0,0,2.92,2.35c2.71-.1,5.42,0,8.13,0,4.2,0,4.28-.12,3.21-4.29q-4.12-16-8.23-32.06c-2.42-9.44-4.87-18.88-7.25-28.33-.47-1.89-1.45-2.75-3.43-2.65S339.58,299.32,337.62,299.32Z" transform="translate(-286.62 -174.5)"/><path d="M480,332.6q0,15.45,0,30.9c0,1.6.21,2.83,2.24,2.82q15.65,0,31.3,0c1.59,0,2.16-.77,2.15-2.26,0-2.51,0-5,0-7.52s-.32-2.67-2.73-2.68c-5.42,0-10.84-.07-16.26,0-2,0-2.64-.76-2.6-2.64.07-3.25.06-6.51,0-9.76,0-1.76.59-2.57,2.49-2.53,4.54.1,9.08,0,13.62,0,1.7,0,2.5-.74,2.49-2.44,0-2.71,0-5.42,0-8.13,0-1.9-.81-2.67-2.71-2.64-4.54.07-9.08,0-13.62,0-1.56,0-2.24-.63-2.23-2.15,0-2.85,0-5.69,0-8.54,0-2.66.27-2.91,2.91-2.92,5.35,0,10.71,0,16.06,0,1.81,0,2.6-.7,2.55-2.53-.07-2.44,0-4.88,0-7.32,0-2.84-.2-3-3-3H483.15c-2.84,0-3.16.32-3.16,3.16Q480,317.56,480,332.6Z" transform="translate(-286.62 -174.5)"/><path class="a" d="M455.76,339.11c0-8.13,0-16.26,0-24.39,0-2,.67-2.65,2.59-2.57,2.84.11,5.69,0,8.54,0,2.3,0,2.69-.43,2.72-2.77s0-4.74,0-7.11c0-2.58-.36-2.94-3-2.94-6.5,0-13,0-19.51,0-5.83,0-11.65,0-17.48,0-1.91,0-2.72.71-2.66,2.63.08,2.64.05,5.28,0,7.93,0,1.61.65,2.35,2.31,2.32,2.64-.06,5.28,0,7.93,0,4.09,0,4.09,0,4.09,4.12q0,23.58,0,47.15c0,2.58.23,2.82,2.76,2.85q4.37,0,8.74,0c2.55,0,2.89-.38,2.89-3Q455.77,351.2,455.76,339.11Z" transform="translate(-286.62 -174.5)"/><path class="a" d="M385.4,391c.37.64.5.75.49.86-.45,6.36-.13,12.72-.19,19.08,0,4.54.18,4.68,4.68,4.44,1.35-.07,2-.59,2-2q0-16.15,0-32.3a1.82,1.82,0,0,0-2.11-2.09c-1.83,0-3.66.08-5.48,0-2-.12-2.9.67-3.24,2.69-1,5.6-2.11,11.17-3.19,16.75-.08.42,0,1-.84,1-.1-.36-.22-.73-.3-1.11-1.18-5.7-2.39-11.39-3.49-17.11-.3-1.55-1-2.24-2.58-2.19-1.89.06-3.8.1-5.69,0s-2.62.68-2.61,2.61c.06,10.36,0,20.72,0,31.08,0,2.54.19,2.67,3.1,2.67s3.25-.15,3.25-2.74c0-6.3,0-12.6,0-18.89,0-.62-.22-1.3.3-1.93a2.1,2.1,0,0,1,.65,1.34c1.55,6.66,3.12,13.31,4.63,20,.35,1.55,1,2.32,2.74,2.29a2.43,2.43,0,0,0,2.77-2.25c.81-4,1.77-7.93,2.68-11.88C383.75,398.06,384.52,394.8,385.4,391Z" transform="translate(-286.62 -174.5)"/><path class="c" d="M349.29,391.86c0,.65.1,1.11.1,1.57q0,9,0,18.09c0,4,.08,4.05,4.13,3.9h.41c1.28,0,1.83-.65,1.83-1.9q0-16.16,0-32.31a1.84,1.84,0,0,0-2.11-2.11c-1.9,0-3.8.1-5.69,0s-2.63.82-2.92,2.56q-1,5.91-2.18,11.78a37,37,0,0,1-1.4,6.2c-.79-.26-.66-.81-.76-1.24-1.2-5.63-2.46-11.24-3.56-16.89-.34-1.74-1.14-2.46-2.87-2.39s-3.66.1-5.49,0-2.65.73-2.64,2.64c.07,10.36.06,20.73.1,31.09,0,2.39.34,2.6,3.44,2.6,2.7,0,3-.19,3-2.61,0-6.3,0-12.6,0-18.9,0-.66-.25-1.41.35-2a2.4,2.4,0,0,1,.65,1.61c1.55,6.66,3.13,13.31,4.65,20a2.29,2.29,0,0,0,2.56,2c1.88.08,2.66-.78,3-2.49,1.46-6.54,3-13.07,4.5-19.6C348.5,392.87,348.41,392.27,349.29,391.86Z" transform="translate(-286.62 -174.5)"/><path class="c" d="M485.25,398.46c-1.09-.3-1.06-.94-1.24-1.41q-2.55-6.75-5-13.52c-1.73-4.71-1.71-4.68-6.82-4.47-1.61.06-2.34.71-2.33,2.34q0,15.85,0,31.71c0,1.65.74,2.36,2.35,2.3.61,0,1.22,0,1.83,0,2.6,0,2.89-.31,2.9-3,0-5.22,0-10.43,0-15.65,0-.49-.32-1.17.55-1.58,2,5.55,3.93,11,5.85,16.37,1.34,3.75,1.45,3.85,5.34,3.84,3.27,0,3.39-.11,3.39-3.48q0-14.23,0-28.45c0-4.62,0-4.62-4.6-4.41h-.2c-1.39-.06-2,.64-1.93,2,0,2.1,0,4.2,0,6.3C485.25,391,485.25,394.65,485.25,398.46Z" transform="translate(-286.62 -174.5)"/><path class="a" d="M434.21,397.18c0-2.91,0-5.82,0-8.73a3.3,3.3,0,0,1,3.62-3.47c2.22,0,3.36,1.29,3.51,3.83.06,1-.25,2.29,1.12,2.49a23.11,23.11,0,0,0,4.45,0c.68,0,1-.61,1.11-1.27a9.25,9.25,0,0,0-3.83-9.63,12.58,12.58,0,0,0-9.78-1.5c-4.86,1.07-7.28,4.12-7.31,9.08,0,6.3-.06,12.59,0,18.89,0,3.48,1.3,6.42,4.63,8s6.82,1.78,10.06-.38c1-.68,1.63-.91,2.48.23.73,1,2,.84,3,.53s1.08-1.27,1.08-2.17c0-5,0-10,.05-15,0-1.77-.72-2.44-2.43-2.39-2,.07-4.06,0-6.09,0-1.5,0-2.63.17-2.67,2.14-.06,3.34,0,3.63,2.34,3.85,1.28.12,1.83.65,1.77,1.91,0,.81,0,1.63,0,2.44a3.41,3.41,0,0,1-3.74,3.42c-2.1-.06-3.32-1.25-3.37-3.49C434.16,403,434.21,400.09,434.21,397.18Z" transform="translate(-286.62 -174.5)"/><path class="a" d="M418.63,415.42c3.52,0,3.61-.1,2.83-3.57q-.55-2.48-1.09-5c-1.87-8.53-3.78-17-5.59-25.58-.35-1.63-1.1-2.34-2.75-2.24a25.13,25.13,0,0,1-4.06,0c-2-.21-2.78.7-3.13,2.54-.85,4.38-1.82,8.74-2.75,13.11L398.21,413c-.2.95-.45,1.9.83,2.34,3.46,1.21,5.85-.12,6.52-3.7s.33-3.51,4.24-3.49c4.36,0,3.82-.47,4.73,3.92C415.19,415.3,415.29,415.41,418.63,415.42Z" transform="translate(-286.62 -174.5)"/><path class="c" d="M499.36,397.19h0c0,5.21,0,10.43,0,15.64,0,1.93.75,2.65,2.67,2.6,3.52-.09,7,0,10.56,0,4.2,0,4.28-.06,4.17-4.33a1.94,1.94,0,0,1,0-.2c.14-1.79-.86-2.43-2.47-2.44s-3.38,0-5.07,0c-2.77,0-2.92-.11-2.9-2.8,0-6.35-.61-5.55,5.48-5.58,3.3,0,3.39-.09,3.37-3.44a4,4,0,0,1,0-.41c.18-1.8-.55-2.65-2.44-2.53-1.55.1-3.11,0-4.67,0-.88,0-1.53-.24-1.77-1.26-1.19-5.09-.06-6.56,5.08-6.55h.81c4.42,0,4.35,0,4.29-4.37,0-1.88-.79-2.48-2.58-2.45-3.93.08-7.85,0-11.78,0-2.41,0-2.71.3-2.72,2.68C499.35,386.9,499.36,392,499.36,397.19Z" transform="translate(-286.62 -174.5)"/><path class="a" d="M462.68,397.08q0-6.91,0-13.81c0-4.23,0-4.23-4.22-4.2-2.71,0-2.87.17-2.87,2.9q0,14.62,0,29.25c0,4.25,0,4.25,4.33,4.17,2.46,0,2.76-.33,2.77-2.88C462.69,407.37,462.68,402.23,462.68,397.08Z" transform="translate(-286.62 -174.5)"/><path class="c" d="M311.84,397.26h-.06q0,7.91,0,15.82c0,.68-.14,1.52.52,1.86a7.93,7.93,0,0,0,5.53.23c1.34-.31,1-1.75,1-2.79q0-14.3,0-28.6c0-4.93-.13-5-5-4.69-1.44.1-2,.71-2,2.16C311.86,386.58,311.84,391.92,311.84,397.26Z" transform="translate(-286.62 -174.5)"/><path class="a" d="M388.65,320.84c0-2.3,0-4.59,0-6.89,0-1.38.61-2,1.93-2a40.13,40.13,0,0,1,7.48.25,4.65,4.65,0,0,1,4,3.49,16.28,16.28,0,0,1,.09,9.19c-.85,3-3.1,4.31-6,4.51-1.95.13-3.91,0-5.87.07-1.23,0-1.66-.55-1.64-1.73,0-2.3,0-4.59,0-6.89Z" transform="translate(-286.62 -174.5)"/><path class="c" d="M337.79,319.67c.67,2.66,1.27,4.93,1.81,7.21,1,4.22,1.95,8.44,3,12.66.34,1.42.06,2.19-1.61,2.13-2.3-.08-4.61,0-6.91,0-1.12,0-1.71-.43-1.45-1.58q2.21-9.8,4.46-19.6C337.09,320.32,337.3,320.2,337.79,319.67Z" transform="translate(-286.62 -174.5)"/><path class="a" d="M409.61,390c1.08,1.16,1,2.24,1.18,3.17.54,2.37.91,4.77,1.42,7.15.27,1.23-.13,1.72-1.38,1.83-3.05.27-3.45-.11-2.9-3.15C408.46,396.16,409,393.29,409.61,390Z" transform="translate(-286.62 -174.5)"/></svg>