<?xml version="1.0" encoding="utf-8"?>
<!-- Generator: Adobe Illustrator 21.0.0, SVG Export Plug-In . SVG Version: 6.00 Build 0)  -->
<svg version="1.2" baseProfile="tiny-ps" id="Livello_1" xmlns="http://www.w3.org/2000/svg" xmlns:xlink="http://www.w3.org/1999/xlink" x="0px" y="0px" viewBox="0 0 283.5 283.5" xml:space="preserve"><title>BIMI Logo</title>
<g>
	<path fill="#4C7C54" d="M186.8,151.9c0-0.8-0.1-1.7-0.1-2.4c0-35.9,0-7.9,0-44c0-3.6-1.9-6.4-5.3-7.4c-3.2-1.1-6.6-0.1-8.6,2.6
		c-1.3,1.6-1.5,3.4-1.5,5.4c0,35.8,0,7.7,0,43.5c0,0.8-0.1,1.5-0.1,2.3c-3.3,0-6.5,0-9.8,0c0-0.6-0.1-1.2-0.1-1.8c0-17,0,8.8,0-8.2
		c0-19.3,0-24.5,0-43.8c0-4.8-4.2-8.2-8.9-7.5c-3,0.4-6.4,3.2-6.4,7.9c0.1,20.3,0,26.4,0,46.7c0,16.5,0-9.7,0,6.8
		c-3.3,0-6.8,0-10.1,0c0-0.7-0.1-1.3-0.1-2c0-27.4,0,1.9,0-25.5c0-8.8,0-17.5,0-26.2c0-4.8-4.4-8.4-9.2-7.5c-3.8,0.8-6,3.5-6,7.5
		c0,18,0,21.8,0,39.8c0,18.9,0-4.8,0,14c-3.3,0-6.5,0-9.8,0c0-0.8-0.1-1.7-0.1-2.4c0-35,0-6.2,0-41.2c0-1,0-2,0-3
		c-0.2-3.3-2.5-6.2-5.5-7.1c-3.2-0.9-6.4,0.2-8.4,2.8c-1.3,1.8-1.5,3.7-1.5,5.8c0,35.8,0,7.6,0,43.4c0,0.6-0.1,1.3,0.2,1.8
		 M140.9,46.6c18.7,0,37.4-0.1,56.2,0c7.9,0,13.6,3.9,17,10.9c3.4,7,3,14-1.8,20.3c-6.4,8.5-19.6,7.9-25.2-1.2
		c-2.2-3.5-2.7-7.4-0.8-11.2c2.3-4.7,8.3-6.4,12.3-3.7c3,2.1,3.7,6.6,1.3,8.9c-1.8,1.8-4.3,1.6-5.6-0.6c-0.3-0.4-0.5-1-1.2-0.9
		c-0.7,0.1-1,0.6-1.2,1.2c-0.6,2-0.2,3.8,1.3,5.3c2.6,2.3,5.6,2.7,8.8,1.3c6.7-2.7,8.9-11,4.8-17.5c-4.7-7.3-15-9-22.3-3.7
		c-6.4,4.7-8,11.3-6.5,18.8c2.8,13.5,18.6,21,31.4,15c9.9-4.7,15.7-15.2,14.5-26.2c-1.6-14-13.5-24.9-27.6-24.9
		c-37,0-74.1,0-111.1,0c-1.7,0-3.3,0.2-4.8,0.4c-14.8,2.8-23.6,16.9-22.7,29.5c0.9,12.3,12.1,25.6,28.2,23
		c11.6-1.8,19.4-11.7,18.2-23.3c-1-9.4-8.4-15.9-17.9-15.2c-7.3,0.5-14,6.4-13.3,14.9c0.4,4.5,3.2,8.4,7.5,9.7
		c3,0.9,5.8,0.7,8.2-1.6c1.5-1.4,1.8-3.2,1.3-5.2c-0.2-0.6-0.4-1.1-1.1-1.3c-0.6-0.1-1,0.3-1.3,0.8c-0.8,1.4-2.1,2.1-3.8,1.8
		s-2.7-1.4-3.2-3c-1.1-3.4,1.2-7.2,4.8-8.1c4.3-1.1,9.2,1.6,10.6,6c1.5,4.6,0.2,8.7-2.9,12.1c-6.9,7.5-18.6,6.4-24.4-2.3
		c-4.2-6.4-4.3-13.2-0.7-19.8c3.5-6.5,9-10.2,16.5-10.2C103.5,46.5,122.2,46.6,140.9,46.6z M141.1,54.3c-10.9,0-21.7,0-32.6,0
		c-0.4,0-1.1-0.3-1.3,0.3c-0.3,0.5,0.3,0.8,0.5,1.3c1.9,3,3.1,6.3,3.7,9.8c0.3,2.1,0.3,2.1,2.4,2.1c7,0,14,0,21.1,0
		c11.3,0,22.6,0,33.8,0c1.3,0,1.9-0.3,2.1-1.8c0.3-3.5,1.7-6.8,3.4-9.9c0.3-0.5,1-0.9,0.6-1.5c-0.3-0.5-1.1-0.3-1.7-0.3
		C162.4,54.3,151.8,54.3,141.1,54.3z M141.1,82.7c3.8,0,7.7,0,11.5,0c6.6,0,13.2,0,19.8,0c1.7,0,1.8-0.1,0.9-1.6
		c-0.8-1.5-1.5-3-1.8-4.7c-0.3-1.3-1-1.7-2.3-1.7c-5.8,0.1-11.5,0-17.3,0c-12.9,0-25.7,0-38.5,0c-2.3,0-2.3,0-3,2.2
		c-0.4,1.3-1,2.7-1.6,4c-0.8,1.8-0.8,1.8,1.1,1.8C120.3,82.7,130.6,82.7,141.1,82.7z"/>
</g>
<rect x="57.1" y="128.6" fill="#FFFFFF" width="178" height="107.9"/>
<path fill="#4C7C54" d="M109.3,166.9L109.3,166.9c0,8.5,0,17.1,0,25.7c0,2.1,0.3,2.3,2.3,2.3c2.3,0,4.5,0,6.8,0
	c2.3,0,2.6-0.3,2.6-2.7c0-5.4,0-10.9,0-16.3c0-0.7-0.2-1.4,0.5-1.9c1.3-1,4.2-0.1,4.8,1.5c2.1,5.8,4.2,11.7,6.2,17.6
	c0.4,1.3,1.3,1.9,2.6,1.9c2.7-0.1,5.3-0.1,7.9-0.2s2.8-0.3,1.8-2.7c-2.4-6.3-4.8-12.5-7.4-18.8c-0.5-1.2-0.3-1.8,0.9-2.3
	c3.4-1.4,5.2-4.2,6-7.7c0.8-3.7,0.9-7.4,0.6-11.1c-0.8-7.9-4.4-11.9-12.1-13.2c-1.1-0.2-2.3-0.2-3.3-0.2c-5.8,0-11.5,0-17.3,0
	c-2.7,0-2.9,0.3-2.9,2.9C109.3,150.1,109.3,158.6,109.3,166.9z"/>
<path d="M78.6,138.9c-1.3,0-2.8,0-4.1,0c-3.2,0-3.3,0.1-4,3.1c-2.8,10.8-5.4,21.6-8.2,32.4c-1.5,6-3,12-4.5,18.1
	c-0.6,2.2-0.2,2.6,2.1,2.6c2.5,0,5.1,0,7.6,0c1.3,0,2-0.5,2.3-1.8c0.5-2.4,1.1-4.8,1.6-7.3c0.3-1.3,0.8-1.8,2.2-1.8
	c3.4,0.1,6.8,0.1,10.2,0c1.3,0,1.8,0.5,2.1,1.7c0.5,2.4,1.2,4.8,1.7,7.3c0.3,1.4,1,2,2.4,1.9c2.3-0.1,4.5,0,6.8,0
	c3.5,0,3.6-0.1,2.7-3.6c-2.3-8.9-4.6-17.9-6.9-26.8c-2-7.9-4.1-15.8-6-23.6c-0.4-1.6-1.3-2.3-2.8-2.3C82,139,80.3,138.9,78.6,138.9z
	"/>
<path d="M197.6,166.7c0,8.6,0,17.2,0,25.8c0,1.3,0.2,2.3,1.8,2.3c8.7,0,17.5,0,26.2,0c1.3,0,1.8-0.7,1.8-1.9c0-2.1,0-4.2,0-6.3
	c0-2-0.3-2.3-2.3-2.3c-4.5,0-9-0.1-13.6,0c-1.7,0-2.2-0.7-2.2-2.2c0.1-2.8,0.1-5.4,0-8.2c0-1.5,0.5-2.2,2.1-2.1
	c3.8,0.1,7.6,0,11.4,0c1.4,0,2.1-0.6,2.1-2c0-2.3,0-4.5,0-6.8c0-1.6-0.7-2.3-2.3-2.2c-3.8,0.1-7.6,0-11.4,0c-1.3,0-1.8-0.5-1.8-1.8
	c0-2.3,0-4.8,0-7.1c0-2.3,0.3-2.4,2.4-2.4c4.5,0,8.9,0,13.5,0c1.5,0,2.2-0.6,2.1-2.1c-0.1-2,0-4.1,0-6.1c0-2.3-0.2-2.5-2.5-2.5
	c-8.2,0-16.5,0-24.7,0c-2.3,0-2.7,0.3-2.7,2.7C197.6,149.9,197.6,158.3,197.6,166.7z"/>
<path fill="#4C7C54" d="M177.4,172.1c0-6.8,0-13.6,0-20.4c0-1.7,0.6-2.2,2.2-2.2c2.3,0.1,4.8,0,7.1,0c1.9,0,2.3-0.3,2.3-2.3
	s0-3.9,0-5.9c0-2.2-0.3-2.4-2.5-2.4c-5.4,0-10.9,0-16.3,0c-4.8,0-9.8,0-14.6,0c-1.6,0-2.3,0.6-2.3,2.2c0.1,2.2,0.1,4.4,0,6.6
	c0,1.3,0.6,2,1.9,1.9c2.2-0.1,4.4,0,6.6,0c3.4,0,3.4,0,3.4,3.4c0,13.1,0,26.2,0,39.4c0,2.2,0.2,2.3,2.3,2.3c2.4,0,4.8,0,7.3,0
	c2.2,0,2.4-0.3,2.4-2.5C177.4,185.6,177.4,178.9,177.4,172.1z"/>
<path fill="#4C7C54" d="M118.6,215.5c0.3,0.5,0.4,0.7,0.4,0.8c-0.4,5.3-0.1,10.6-0.2,16c0,3.8,0.2,3.9,3.9,3.7
	c1.1-0.1,1.7-0.5,1.7-1.7c0-9,0-18,0-27c0-1.2-0.6-1.8-1.8-1.8c-1.5,0-3.1,0.1-4.6,0c-1.7-0.1-2.4,0.6-2.7,2.3
	c-0.8,4.7-1.8,9.4-2.7,14c-0.1,0.3,0,0.8-0.7,0.8c-0.1-0.3-0.2-0.6-0.3-0.9c-1-4.8-2-9.5-2.9-14.3c-0.3-1.3-0.8-1.8-2.2-1.8
	c-1.6,0.1-3.2,0.1-4.8,0c-1.6-0.1-2.2,0.6-2.2,2.2c0.1,8.7,0,17.3,0,26c0,2.1,0.2,2.3,2.6,2.3c2.5,0,2.7-0.1,2.8-2.3
	c0-5.3,0-10.5,0-15.8c0-0.5-0.2-1.1,0.3-1.6c0.4,0.3,0.4,0.8,0.5,1.1c1.3,5.6,2.6,11.1,3.8,16.7c0.3,1.3,0.8,1.9,2.3,1.9
	c1.3,0,2-0.5,2.3-1.8c0.7-3.3,1.5-6.6,2.3-9.9C117.2,221.4,117.8,218.7,118.6,215.5z"/>
<path d="M88.4,216.2c0,0.5,0.1,0.9,0.1,1.3c0,5,0,10.1,0,15.1c0,3.3,0.1,3.4,3.4,3.3c0.1,0,0.3,0,0.3,0c1.1,0,1.5-0.6,1.5-1.6
	c0-9,0-18,0-27c0-1.2-0.6-1.8-1.8-1.8c-1.6,0-3.2,0.1-4.8,0c-1.6-0.1-2.2,0.7-2.4,2.2c-0.6,3.3-1.2,6.6-1.8,9.9
	c-0.3,1.8-0.5,3.5-1.2,5.2c-0.7-0.3-0.6-0.7-0.7-1c-1-4.7-2.1-9.4-3-14.1c-0.3-1.4-0.9-2.1-2.4-2c-1.5,0.1-3.1,0.1-4.6,0
	c-1.6-0.1-2.3,0.6-2.2,2.2c0.1,8.7,0.1,17.3,0.1,26c0,2,0.3,2.2,2.8,2.2c2.3,0,2.5-0.2,2.5-2.2c0-5.3,0-10.5,0-15.8
	c0-0.6-0.3-1.2,0.3-1.7c0.5,0.4,0.4,0.9,0.5,1.3c1.3,5.6,2.6,11.1,3.9,16.7c0.3,1.3,0.9,1.6,2.2,1.7c1.6,0.1,2.3-0.7,2.5-2.1
	c1.3-5.4,2.5-10.9,3.8-16.4C87.8,217.1,87.7,216.6,88.4,216.2z"/>
<path d="M202,221.8c-0.9-0.3-0.9-0.8-1-1.2c-1.4-3.8-2.8-7.5-4.2-11.3c-1.4-3.9-1.4-3.9-5.7-3.8c-1.3,0.1-1.9,0.6-1.9,1.9
	c0,8.9,0,17.6,0,26.5c0,1.4,0.6,2,1.9,1.9c0.5,0,1,0,1.5,0c2.2,0,2.4-0.3,2.4-2.5c0-4.3,0-8.7,0-13c0-0.4-0.3-1,0.5-1.3
	c1.7,4.6,3.3,9.2,4.9,13.7c1.1,3.2,1.3,3.3,4.4,3.2c2.8,0,2.8-0.1,2.8-2.9c0-7.9,0-15.9,0-23.8c0-3.8,0-3.8-3.8-3.7
	c-0.1,0-0.1,0-0.2,0c-1.2-0.1-1.7,0.5-1.6,1.7c0,1.8,0,3.5,0,5.3C202,215.5,202,218.6,202,221.8z"/>
<path fill="#4C7C54" d="M159.4,220.7c0-2.4,0-4.8,0-7.3c0.1-1.8,1.3-2.9,3-2.9c1.8,0,2.8,1.1,2.9,3.2c0.1,0.8-0.2,1.9,0.9,2.1
	c1.3,0.2,2.5,0.1,3.7,0c0.6,0,0.8-0.5,0.9-1.1c0.7-3-0.6-6.4-3.2-8c-2.5-1.6-5.3-1.9-8.2-1.3c-4.1,0.9-6.1,3.4-6.1,7.6
	c0,5.3-0.1,10.5,0,15.8c0,2.9,1.1,5.3,3.8,6.7c2.8,1.3,5.7,1.5,8.4-0.3c0.8-0.6,1.3-0.8,2.1,0.2c0.6,0.8,1.7,0.7,2.5,0.4
	c0.8-0.3,0.9-1.1,0.9-1.8c0-4.2,0-8.4,0.1-12.5c0-1.5-0.6-2-2-2c-1.7,0.1-3.4,0-5.1,0c-1.3,0-2.2,0.2-2.3,1.8c-0.1,2.8,0,3,1.9,3.2
	c1.1,0.1,1.5,0.6,1.5,1.6c0,0.7,0,1.3,0,2c-0.2,1.8-1.3,2.9-3.1,2.8c-1.8-0.1-2.8-1.1-2.8-2.9C159.4,225.5,159.4,223.1,159.4,220.7z
	"/>
<path fill="#4C7C54" d="M146.3,235.9c2.9,0,3-0.1,2.3-3c-0.3-1.4-0.6-2.8-0.9-4.2c-1.6-7.1-3.2-14.2-4.7-21.4
	c-0.3-1.3-0.9-1.9-2.3-1.8c-1.1,0.1-2.3,0.1-3.4,0c-1.7-0.2-2.3,0.6-2.6,2.1c-0.7,3.7-1.5,7.3-2.3,10.9c-1.1,5.1-2.2,10.2-3.3,15.3
	c-0.2,0.8-0.3,1.6,0.7,1.9c2.9,1,4.9-0.1,5.4-3.1c0.6-3,0.3-2.9,3.5-2.9c3.7,0,3.2-0.4,3.9,3.3C143.5,235.8,143.6,235.9,146.3,235.9
	z"/>
<path d="M213.9,220.7L213.9,220.7c0,4.3,0,8.7,0,13c0,1.6,0.6,2.3,2.3,2.2c2.9-0.1,5.8,0,8.9,0c3.5,0,3.6-0.1,3.5-3.6
	c0-0.1,0-0.1,0-0.2c0.1-1.5-0.8-2-2.1-2c-1.4,0-2.8,0-4.3,0c-2.3,0-2.4-0.1-2.4-2.3c0-5.3-0.5-4.6,4.6-4.7c2.8,0,2.8-0.1,2.8-2.8
	c0-0.1,0-0.3,0-0.3c0.2-1.5-0.5-2.2-2-2.1c-1.3,0.1-2.6,0-3.9,0c-0.8,0-1.3-0.2-1.5-1.1c-1-4.3-0.1-5.5,4.3-5.5c0.3,0,0.4,0,0.7,0
	c3.7,0,3.7,0,3.6-3.7c0-1.6-0.7-2.1-2.2-2c-3.3,0.1-6.6,0-9.9,0c-2,0-2.3,0.3-2.3,2.3C213.8,212.1,213.9,216.3,213.9,220.7z"/>
<path fill="#4C7C54" d="M183.2,220.6c0-3.8,0-7.7,0-11.5c0-3.5,0-3.5-3.5-3.5c-2.3,0-2.4,0.2-2.4,2.4c0,8.1,0,16.3,0,24.4
	c0,3.5,0,3.5,3.6,3.5c2.1,0,2.3-0.3,2.3-2.4C183.2,229.2,183.2,224.9,183.2,220.6z"/>
<path d="M57.1,220.8L57.1,220.8C57,225.2,57,229.5,57,234c0,0.6-0.1,1.3,0.4,1.6c1.5,0.8,3.1,0.5,4.6,0.2c1.1-0.3,0.8-1.5,0.8-2.3
	c0-7.9,0-16,0-23.9c0-4.1-0.1-4.2-4.2-3.9c-1.2,0.1-1.7,0.6-1.7,1.8C57.2,211.8,57.1,216.2,57.1,220.8z"/>
<path fill="#4C7C54" d="M121.3,156.8c0-1.9,0-3.8,0-5.8c0-1.2,0.5-1.7,1.6-1.7c2.1-0.1,4.2-0.1,6.3,0.3c1.8,0.3,2.8,1.3,3.3,2.9
	c0.8,2.5,0.8,5.1,0.1,7.7c-0.7,2.5-2.6,3.6-5,3.8c-1.6,0.1-3.3,0-4.9,0.1c-1,0-1.4-0.4-1.3-1.4C121.3,160.7,121.3,158.8,121.3,156.8
	L121.3,156.8z"/>
<path d="M78.8,155.9c0.6,2.3,1.1,4.1,1.5,6c0.8,3.5,1.6,7,2.5,10.6c0.3,1.2,0.1,1.8-1.3,1.8c-1.9-0.1-3.8,0-5.8,0
	c-0.9,0-1.4-0.3-1.2-1.3c1.3-5.4,2.5-10.9,3.8-16.4C78.2,156.4,78.4,156.3,78.8,155.9z"/>
<path fill="#4C7C54" d="M138.8,214.7c0.9,1,0.8,1.8,1,2.7c0.4,2,0.8,4,1.2,5.9c0.3,1-0.1,1.4-1.2,1.5c-2.6,0.3-2.9-0.1-2.4-2.6
	C137.9,219.8,138.3,217.4,138.8,214.7z"/>
<rect x="36.4" y="35" fill="none" stroke="#FFFFFF" stroke-miterlimit="10" width="209.2" height="209.2"/>
</svg>
